<?xml version="1.0" standalone="no"?>
<!DOCTYPE svg PUBLIC "-//W3C//DTD SVG 20010904//EN"
 "http://www.w3.org/TR/2001/REC-SVG-20010904/DTD/svg10.dtd">
<svg version="1.0" xmlns="http://www.w3.org/2000/svg"
 width="500.000000pt" height="500.000000pt" viewBox="0 0 500.000000 500.000000"
 preserveAspectRatio="xMidYMid meet">

<g transform="translate(0.000000,500.000000) scale(0.100000,-0.100000)"
fill="#000000" stroke="none">
<path d="M2945 3540 c-63 -13 -125 -38 -175 -70 -25 -16 -155 -141 -290 -277
-269 -271 -287 -296 -317 -436 -33 -160 17 -333 131 -451 40 -40 51 -46 87
-46 35 0 48 6 80 39 54 53 53 91 -1 157 -64 78 -75 108 -75 204 0 68 5 93 22
125 12 22 124 142 250 267 254 253 280 272 388 271 82 0 153 -32 210 -95 71
-79 91 -172 59 -278 -15 -50 -32 -71 -200 -241 -171 -173 -184 -189 -184 -223
0 -51 61 -120 99 -111 20 4 22 3 11 -5 -12 -7 -9 -10 15 -10 26 0 57 27 220
193 125 125 200 210 218 243 38 72 57 156 57 250 0 318 -294 557 -605 494z
m346 -963 c-10 -9 -11 -8 -5 6 3 10 9 15 12 12 3 -3 0 -11 -7 -18z m-35 -9
c10 -12 14 -18 7 -15 -6 4 -14 0 -17 -10 -3 -11 -4 -8 -3 7 1 16 -3 24 -11 22
-8 -1 -11 2 -7 8 8 14 9 13 31 -12z m-69 -60 c-3 -8 -6 -5 -6 6 -1 11 2 17 5
13 3 -3 4 -12 1 -19z m-14 -31 c-4 -7 -8 -15 -8 -19 0 -3 -3 -9 -7 -12 -5 -3
-6 -3 -3 1 3 3 0 12 -7 20 -9 11 -8 13 3 11 8 -2 13 3 11 10 -1 8 2 11 8 7 6
-3 7 -12 3 -18z m-89 -75 c3 -5 -1 -9 -9 -9 -8 0 -12 4 -9 9 3 4 7 8 9 8 2 0
6 -4 9 -8z"/>
<path d="M2539 2701 c-53 -53 -54 -97 -3 -153 85 -94 108 -221 60 -323 -35
-73 -461 -495 -531 -526 -191 -85 -414 78 -392 286 9 88 39 129 223 316 164
165 174 177 174 213 0 32 -7 46 -45 84 -41 41 -48 44 -82 39 -33 -6 -63 -32
-223 -194 -120 -121 -195 -206 -212 -239 -77 -145 -77 -344 0 -488 34 -65 143
-175 202 -204 205 -101 433 -74 582 70 29 28 44 44 33 37 -18 -13 -19 -13 -6
4 8 9 16 15 19 12 8 -8 102 87 96 97 -3 5 0 7 8 6 7 -2 12 3 10 10 -1 8 1 11
6 8 10 -6 265 248 257 256 -4 3 -1 9 6 14 8 5 10 3 5 -7 -4 -8 4 -1 17 15 39
45 75 127 92 206 19 88 19 117 0 205 -20 94 -64 180 -124 243 -44 46 -54 52
-92 52 -35 0 -47 -6 -80 -39z m146 -721 c-3 -5 -12 -10 -18 -10 -7 0 -6 4 3
10 19 12 23 12 15 0z m-108 -29 c0 -11 -5 -18 -9 -15 -4 3 -5 11 -1 19 7 21
12 19 10 -4z m38 -30 c3 -5 0 -13 -6 -17 -7 -4 -9 -3 -5 4 3 5 0 13 -6 15 -9
4 -10 6 -1 6 6 1 14 -3 18 -8z m-35 -45 c0 -3 -4 -8 -10 -11 -5 -3 -10 -1 -10
4 0 6 5 11 10 11 6 0 10 -2 10 -4z m-68 -34 c-7 -5 -10 -16 -7 -24 4 -9 2 -18
-2 -21 -5 -3 -8 6 -7 21 2 33 1 32 17 32 9 0 9 -2 -1 -8z m-116 -135 c19 7 18
-1 -3 -20 -17 -14 -18 -14 -19 11 -1 15 1 22 3 15 2 -7 11 -9 19 -6z m-116
-103 c0 -8 -19 -13 -24 -6 -3 5 1 9 9 9 8 0 15 -2 15 -3z m0 -29 c-7 -9 -15
-13 -19 -10 -3 3 1 10 9 15 21 14 24 12 10 -5z"/>
<path d="M85 1099 c-4 -6 -4 -13 -1 -16 3 -4 6 -1 6 5 0 17 20 15 42 -5 17
-15 18 -15 18 8 0 17 -3 20 -9 10 -6 -9 -11 -10 -15 -2 -9 14 -33 14 -41 0z"/>
<path d="M98 1053 c12 -2 30 -2 40 0 9 3 -1 5 -23 4 -22 0 -30 -2 -17 -4z"/>
<path d="M85 1031 c-8 -14 2 -31 18 -30 9 0 9 2 0 6 -22 8 -14 23 12 23 25 0
34 -14 15 -23 -6 -3 -5 -4 2 -3 7 2 13 9 13 17 0 17 -50 25 -60 10z"/>
<path d="M81 958 c1 -19 2 -19 6 -5 3 13 10 16 21 12 38 -15 46 -16 22 -1 -35
22 -50 20 -49 -6z"/>
<path d="M80 918 c0 -21 20 -24 38 -6 10 10 15 10 22 -2 7 -11 10 -11 10 -2 0
19 -31 27 -41 11 -8 -12 -11 -12 -19 1 -8 13 -10 12 -10 -2z"/>
<path d="M85 881 c-8 -14 2 -31 18 -30 9 0 9 2 0 6 -22 8 -14 23 12 23 25 0
34 -14 15 -23 -6 -3 -5 -4 2 -3 7 2 13 9 13 17 0 17 -50 25 -60 10z"/>
<path d="M87 833 c-14 -13 -6 -33 13 -33 11 0 20 5 20 11 0 8 5 8 15 -1 20
-16 19 -6 -1 14 -16 17 -36 21 -47 9z m23 -13 c0 -5 -4 -10 -10 -10 -5 0 -10
5 -10 10 0 6 5 10 10 10 6 0 10 -4 10 -10z"/>
<path d="M85 769 c-4 -6 -4 -13 -1 -16 3 -4 6 -1 6 5 0 17 20 15 42 -5 17 -15
18 -15 18 8 0 17 -3 20 -9 10 -6 -9 -11 -10 -15 -2 -9 14 -33 14 -41 0z"/>
<path d="M85 720 c-4 -6 -4 -14 -1 -17 3 -4 6 -1 6 5 0 13 42 12 53 -3 5 -6 7
-4 4 5 -4 18 -52 26 -62 10z"/>
<path d="M100 667 c0 -18 2 -19 10 -7 6 10 10 11 10 3 0 -7 4 -13 10 -13 14 0
1 27 -16 34 -9 4 -14 -2 -14 -17z"/>
<path d="M123 613 c9 -2 25 -2 35 0 9 3 1 5 -18 5 -19 0 -27 -2 -17 -5z"/>
<path d="M130 566 c-6 -8 -24 -17 -38 -19 -16 -2 -8 -4 18 -5 25 0 39 2 32 5
-10 4 -10 8 -1 19 6 8 9 14 6 14 -2 0 -10 -6 -17 -14z"/>
<path d="M100 521 c0 -6 4 -13 10 -16 6 -3 7 1 4 9 -7 18 -14 21 -14 7z"/>
<path d="M136 513 c-6 -14 -5 -15 5 -6 7 7 10 15 7 18 -3 3 -9 -2 -12 -12z"/>
<path d="M104 479 c-3 -6 -1 -16 5 -22 9 -9 11 -8 6 6 -5 12 -2 17 10 17 12 0
15 -5 10 -17 -5 -14 -3 -15 6 -6 13 13 4 33 -16 33 -8 0 -17 -5 -21 -11z"/>
<path d="M94 431 c-2 -2 -1 -7 1 -11 5 -9 55 -1 55 9 0 6 -49 9 -56 2z"/>
<path d="M80 388 c0 -21 36 -25 43 -5 4 9 8 8 16 -3 9 -13 11 -13 11 3 0 20
-36 24 -43 5 -4 -10 -8 -9 -16 2 -9 13 -11 13 -11 -2z"/>
<path d="M104 318 c1 -7 12 -14 24 -16 16 -2 22 2 22 15 0 15 -2 16 -10 3 -9
-13 -10 -13 -10 0 0 12 -2 13 -9 1 -6 -9 -10 -10 -14 -2 -3 7 -5 7 -3 -1z"/>
<path d="M103 277 c-4 -8 -15 -17 -23 -20 -8 -3 4 -6 28 -6 36 -1 43 2 40 16
-4 22 -34 29 -45 10z m37 -7 c0 -5 -7 -10 -15 -10 -8 0 -15 5 -15 10 0 6 7 10
15 10 8 0 15 -4 15 -10z"/>
<path d="M104 229 c-3 -6 -1 -16 5 -22 9 -9 11 -8 6 6 -5 12 -2 17 10 17 12 0
15 -5 10 -17 -5 -14 -3 -15 6 -6 13 13 4 33 -16 33 -8 0 -17 -5 -21 -11z"/>
<path d="M80 183 c8 -4 21 -13 28 -22 11 -14 11 -14 6 2 -4 12 -1 17 11 17 12
0 15 -5 10 -17 -5 -14 -3 -15 6 -6 18 18 1 33 -39 32 -20 0 -30 -3 -22 -6z"/>
<path d="M130 132 c-22 -10 -21 -39 2 -45 16 -4 17 -3 7 9 -9 11 -9 17 1 29
14 16 13 17 -10 7z"/>
<path d="M80 110 c0 -5 5 -10 10 -10 6 0 10 5 10 10 0 6 -4 10 -10 10 -5 0
-10 -4 -10 -10z"/>
</g>
</svg>
